<?xml version="1.0" standalone="no"?><!DOCTYPE svg PUBLIC "-//W3C//DTD SVG 1.1//EN" "http://www.w3.org/Graphics/SVG/1.1/DTD/svg11.dtd"><svg t="1497146365549" class="icon" style="" viewBox="0 0 1024 1024" version="1.1" xmlns="http://www.w3.org/2000/svg" p-id="2236" xmlns:xlink="http://www.w3.org/1999/xlink" width="48" height="48"><defs><style type="text/css"></style></defs><path d="M511.998977 65.290005c-173.638689 0-314.904063 138.294716-314.904063 308.281225 0 77.603449 31.020504 185.005574 85.10633 294.67023 53.746088 108.971877 124.852566 209.287607 195.185424 275.377838 8.955976 9.602705 21.51092 15.08865 34.612309 15.08865 12.913101 0 25.359574-5.358031 34.296107-14.736633 149.549038-140.014894 280.608979-406.358985 280.608979-570.401108C826.904063 203.584722 685.637666 65.290005 511.998977 65.290005zM517.467525 914.127613l-1.128707 1.13894c-0.816598 0.8913-2.232854 1.952468-4.339842 1.952468-2.245134 0-3.695159-1.251503-4.361331-1.997494l-1.294482-1.327228C366.207519 782.579555 238.584863 525.041014 238.584863 373.572254c0-147.109476 122.652458-266.791276 273.414113-266.791276 150.761656 0 273.415137 119.6818 273.415137 266.791276C785.414113 525.483082 657.700383 783.130094 517.467525 914.127613z" p-id="2237"></path><path d="M513.044796 181.616384c-91.091648 0-165.199483 74.112951-165.199483 165.210739 0 91.076298 74.107835 165.172877 165.199483 165.172877 91.083461 0 165.184133-74.096579 165.184133-165.172877C678.228929 255.729336 604.128257 181.616384 513.044796 181.616384zM513.044796 470.51005c-68.213591 0-123.709533-55.484685-123.709533-123.682927 0-68.219731 55.495942-123.720789 123.709533-123.720789 68.205405 0 123.694183 55.501058 123.694183 123.720789C636.738979 415.025365 581.2502 470.51005 513.044796 470.51005z" p-id="2238"></path></svg>