<?xml version="1.0" standalone="no"?><!DOCTYPE svg PUBLIC "-//W3C//DTD SVG 1.1//EN" "http://www.w3.org/Graphics/SVG/1.1/DTD/svg11.dtd"><svg t="1497581099845" class="icon" style="" viewBox="0 0 1024 1024" version="1.1" xmlns="http://www.w3.org/2000/svg" p-id="1135" xmlns:xlink="http://www.w3.org/1999/xlink" width="48" height="48"><defs><style type="text/css"></style></defs><path d="M892.543016 224.150106c-9.284457-11.914354-17.804505-21.814842-26.454512-30.930453C759.437485 80.827887 642.682341 92.003414 536.033369 176.799682c-9.493212 7.547907-18.453281 15.383362-26.88737 23.346731-8.43409-7.963369-17.395182-15.798824-26.888394-23.346731C375.608633 92.003414 258.853489 80.827887 152.202471 193.21863c-8.650007 9.115612-17.170055 19.016099-25.559119 29.714765C-2.680039 410.134984 68.411089 595.897805 259.728416 764.030084c42.320874 37.192064 87.560218 70.64906 132.799562 99.905384 15.841803 10.245342 30.570249 19.244296 43.816948 26.932396 8.024767 4.657067 13.827937 7.872295 17.044188 9.578146 4.869914 2.916423 9.728572 5.142114 14.530948 6.771217 3.470031 1.619894 7.516184 3.091408 12.218276 4.387937 25.377994 6.998391 62.97938 1.908466 85.839017-11.764951 2.14178-1.101077 7.944949-4.315282 15.969717-8.972349 13.246699-7.688099 27.974122-16.687054 43.816948-26.932396 45.239344-29.256324 90.478687-62.71332 132.799562-99.905384C949.879885 595.897805 1020.971014 410.134984 892.543016 224.150106z" p-id="1136"></path></svg>