<?xml version="1.0" standalone="no"?><!DOCTYPE svg PUBLIC "-//W3C//DTD SVG 1.1//EN" "http://www.w3.org/Graphics/SVG/1.1/DTD/svg11.dtd"><svg class="icon" width="200px" height="200.00px" viewBox="0 0 1024 1024" version="1.1" xmlns="http://www.w3.org/2000/svg"><path fill="#333333" d="M1023.990786 511.994883c0 129.806391-48.647977 253.595742-136.979768 348.589256-0.23536 0.245593-0.480954 0.491187-0.726547 0.726547l-24.119327 23.464411c-7.68503 7.480368-19.841907 7.746428-27.864628 0.624217-30.975479-27.526937-73.278957-44.237527-114.190739-60.385299-55.882751-22.062482-108.664885-42.907229-126.275985-90.26584-0.63445-1.698688-1.033539-3.479241-1.197268-5.290493-2.40477-26.677593-2.220574-47.225581-2.036379-68.970838 0.061398-6.129604 0.112564-12.463869 0.112564-19.084661 0-7.490601 4.093225-14.367219 10.652618-17.948791 7.562233-5.474688 31.568996-45.465494 35.723619-84.330664 1.043772-9.772574 8.892531-17.416671 18.685571-18.225083 2.619664-0.214894 13.20065-7.592932 17.068747-39.765679 1.985214-16.526395-6.057973-22.338774-6.139837-22.38994-8.145517-4.963035-11.757788-14.868639-8.749268-23.914666 3.530406-10.601452 15.288195-48.576345 18.787902-92.13849 3.397377-42.334177-2.251274-76.686567-16.321734-99.342566-12.555967-20.22053-31.968086-31.896454-59.341526-35.69292-6.293333-0.880043-11.819187-4.625344-14.960737-10.151197-9.148357-16.055674-37.493939-25.644053-75.847455-25.674753-62.104453 1.166569-106.485243 18.74697-131.914402 52.260248-16.833387 22.195511-26.196639 52.229548-27.803229 89.293699-1.524726 35.017538 3.816932 76.318176 15.871479 122.755812 2.27174 8.728802-1.442862 17.907858-9.138124 22.604834-0.051165 0.040932-8.114818 5.863545-6.129604 22.38994 3.868097 32.172747 14.449084 39.550785 17.068747 39.765679 9.803273 0.808412 17.641799 8.452509 18.685571 18.235316 4.123924 38.660508 28.928866 78.774111 36.767392 84.289732 6.579859 3.581572 10.69355 10.478655 10.69355 17.97949 0 6.54916 0.051165 12.811794 0.102331 18.869766 0.184195 21.816888 0.36839 42.426275-2.056845 69.185732-0.153496 1.811252-0.562818 3.591805-1.197268 5.290493-17.621333 47.38931-70.597895 68.223824-126.69554 90.286306-15.144932 5.955642-30.81175 12.115945-45.936215 18.869766-10.32516 4.604878-22.420639-0.020466-27.03575-10.345626-4.604878-10.314926 0.020466-22.420639 10.345626-27.025517 15.963577-7.132444 32.070416-13.46671 47.65537-19.596314 48.105624-18.920932 89.825818-35.32453 102.361319-64.120366 1.964748-23.290449 1.811252-41.382503 1.627057-62.186318-0.030699-3.110851-0.051165-6.2831-0.071631-9.526981-18.839067-18.798135-38.189787-58.748009-45.199435-94.205569-6.702656-3.438309-12.852726-8.585539-18.051121-15.20633-10.19213-13.016455-16.823154-31.742958-19.698644-55.67809-2.732228-22.748097 4.082992-40.164768 13.323447-51.451836-25.050536-103.947444-17.692964-183.03878 21.908986-235.217163 33.42118-44.032866 88.577385-67.067488 163.954119-68.448952l0.378623 0c49.415456 0 86.448908 13.313214 105.789395 37.749766 35.05847 6.938016 61.715597 24.76401 79.316463 53.099359 41.97602 67.568908 17.416671 172.928514 5.505387 213.471906 8.964162 11.2973 15.462157 28.478612 12.781094 50.79692-2.87549 23.935132-9.496282 42.661635-19.698644 55.67809-5.188162 6.610558-11.317767 11.737322-17.999956 15.175631-4.553713 23.904433-13.609972 44.943608-19.156292 56.333006-6.098905 12.545734-14.807241 27.792996-25.009603 37.985126-0.020466 3.284813-0.051165 6.497994-0.081864 9.660011-0.184195 20.742417-0.337691 38.762839 1.616824 61.971423 12.525268 28.795836 54.0715 45.209668 101.982696 64.120366 36.654828 14.46955 77.546144 30.617321 111.51991 55.831586l10.724249-10.437723c81.056084-87.339184 125.682467-201.079668 125.682467-320.335772 0-63.59848-12.453636-125.293611-37.012985-183.356005-23.720238-56.087413-57.68377-106.464777-100.949156-149.730163s-93.64275-77.239152-149.740396-100.95939c-58.062394-24.559349-119.747291-37.002752-183.356005-37.002752s-125.293611 12.443403-183.356005 37.002752c-56.097646 23.720238-106.47501 57.694003-149.740396 100.95939s-77.228919 93.64275-100.949156 149.730163c-24.559349 58.062394-37.012985 119.757524-37.012985 183.356005 0 63.608713 12.453636 125.293611 37.012985 183.356005 23.720238 56.087413 57.68377 106.464777 100.949156 149.740396 43.265386 43.265386 93.64275 77.228919 149.740396 100.949156 58.062394 24.559349 119.747291 37.012985 183.356005 37.012985 80.083943 0 159.165046-20.445658 228.688469-59.126632 9.885138-5.495154 22.338774-1.944282 27.833929 7.930623s1.944282 22.338774-7.930623 27.833929c-75.601862 42.057885-161.559583 64.294328-248.591775 64.294328-69.114101 0-136.171356-13.538341-199.299115-40.246633-60.978816-25.787316-115.725698-62.697971-162.736385-109.708658-47.010687-47.010687-83.921341-101.767801-109.708658-162.736385-26.708292-63.127759-40.246633-130.185015-40.246633-199.299115s13.538341-136.161123 40.246633-199.299115c25.787316-60.968583 62.697971-115.715465 109.708658-162.736385 47.010687-47.010687 101.757568-83.921341 162.736385-109.708658 63.127759-26.698059 130.185015-40.2364 199.299115-40.2364s136.171356 13.538341 199.299115 40.2364c60.978816 25.787316 115.725698 62.697971 162.736385 109.708658 47.010687 47.02092 83.921341 101.767801 109.708658 162.736385C1010.442212 375.833761 1023.990786 442.880783 1023.990786 511.994883z" /></svg>